<?xml version="1.0" ?><svg xmlns="http://www.w3.org/2000/svg" width="160.41177mm" height="48.362457mm" viewBox="0 0 160.41177 48.362457">
    <path d="m -1062.2292,-524.43236 1.1994,-15.21011 10.7583,-7.327 10.5767,7.68681 -1.0177,14.19611 -10.2132,6.18218 z" fill="#9bafff" paint-order="fill markers stroke" transform="translate(-24.870788,-124.35417) translate(1121.2651,687.16275)"/>
    <path d="m -953.9061,-516.13041 c -3.4027,-2.6849 -2.1221,-5.37308 1.5621,-3.37763 0,0 1.4263,0.97955 1.8545,1.36926 0.5495,0.50015 2.8182,-1.15626 4.0302,-2.03889 1.8569,-1.5704 4.2972,-3.28096 5.3232,-4.11197 1.8022,-1.4597 2.40506,-2.09534 2.1484,-7.6121 l -0.2524,-5.42525 c -0.1016,-1.58509 -7.2802,-5.40446 -11.7928,-7.40677 -1.1948,-0.53015 -9.5497,7.10332 -10.171,7.76573 -0.5496,0.58591 -0.4835,4.09462 -0.2614,6.01052 0.356,3.07122 0.9827,4.83786 1.1949,5.22859 0.6091,1.12304 2.4679,1.37894 3.2004,0.17852 0.3805,-0.62345 0.2688,-2.91716 0.3758,-6.38709 0.125,-4.07747 -0.068,-5.82863 1.2776,-6.04825 1.0985,-0.17933 1.843,1.58507 1.7787,7.94379 -0.067,6.65343 -1.2489,8.56322 -3.7722,8.82028 -3.9287,0.40028 -6.2908,-2.60062 -6.7233,-8.54173 -0.6234,-8.56597 -0.6266,-8.55659 4.4351,-12.77803 4.7853,-3.99098 7.3582,-5.60209 8.8149,-5.51966 1.0925,0.0618 11.5521,5.79007 13.3384,7.43759 1.4468,1.33457 1.71521,3.50766 1.494,11.04721 l -0.126,4.2945 c -0.0557,1.89729 -2.1676,3.36337 -4.1594,4.98685 -2.1691,1.7679 -4.9467,3.88173 -7.1777,5.20724 -2.0342,1.20853 -4.2019,0.62516 -6.392,-1.04271 z m 2.4869,-8.17407 c -0.683,-1.4699 0.3942,-2.32134 2.7667,-2.18711 2.44,0.13805 4.1195,-0.65709 4.1946,-1.98604 0.051,-0.9001 -0.2633,-1.02681 -2.1802,-0.8793 -1.946,0.1498 -3.1583,0.25612 -4.5638,-1.31805 -2.9419,-3.29477 -0.7875,-7.05805 4.0144,-7.32588 2.6542,-0.14808 4.3338,1.11614 4.2504,2.59079 -0.031,0.53529 -0.7832,0.73575 -2.4349,0.64827 -1.3151,-0.07 -2.7676,0.0828 -3.2276,0.33865 -1.5055,0.83743 0.6199,2.01699 3.2968,2.16844 3.6499,0.20651 5.3253,3.30164 3.4025,6.45237 -1.546,2.53338 -8.5049,3.68082 -9.5189,1.49786 z m -105.6344,4.9768 c -6.9291,-4.22337 -6.6272,-3.59253 -6.5071,-13.59947 0.025,-2.06769 0.2251,-5.61381 0.2251,-5.61381 0.087,-0.85288 2.9725,-3.30452 4.534,-4.66214 5.9283,-5.15424 7.8113,-5.70926 11.7681,-3.46809 3.5123,1.98937 8.0954,5.9109 8.1563,6.97914 0.5587,9.76846 0.5345,15.31896 -0.07,15.96835 -0.3758,0.40407 -2.7203,1.96727 -5.2098,3.47378 -2.4898,1.50652 -3.4299,2.32071 -4.7433,3.20512 -1.5712,1.05808 -2.3585,1.24909 -8.1534,-2.28288 z m 7.2476,-2.89569 c 1.1935,-0.7228 3.1847,-1.84213 4.7817,-3.08597 0.8188,-0.63768 2.4497,-1.50174 2.5585,-2.44619 l 0.043,-4.69761 c 0.042,-4.59178 -0.2955,-5.07068 -0.947,-5.64655 -2.2714,-2.00813 -6.7767,-5.74199 -7.3159,-5.7725 -0.3347,-0.0189 -2.4705,1.03482 -5.4279,3.07719 -3.0569,2.11108 -3.596,3.43923 -3.5882,6.51645 0.01,2.14453 -0.02,4.43824 0.055,6.00672 -0.1042,3.49632 2.0446,3.55076 6.6392,6.0534 1.3624,0.74209 2.065,0.68322 3.2013,-0.005 z m 20.5588,-1.39388 c -1.7284,-0.84427 -1.6852,-1.12928 -1.7329,-1.99945 l -0.3297,-6.01547 c -0.1986,-3.62266 -0.1089,-6.37349 0.2256,-6.91546 0.3056,-0.49503 2.9487,-2.98652 5.8735,-5.53673 5.9406,-5.17967 7.0364,-5.48763 11.3957,-3.20293 l 2.2782,1.19399 c 0,0 0.3349,-0.0168 0.3947,-1.19624 0.035,-0.6919 0.051,-4.4234 0.2789,-8.36766 0.4909,-8.39909 0.6217,-8.53833 5.5003,-4.82927 l 2.5752,1.95785 c 1.1028,0.71653 0.4803,10.81483 0.2952,16.09102 l -0.5028,14.32952 c -0.076,2.1749 -0.9617,2.55178 -1.9233,3.22415 -2.1844,1.52734 -11.9936,9.0872 -13.6241,8.05661 -3.6823,-2.32749 -7.1239,-5.041 -10.7045,-6.78993 z m 14.4882,-5.60485 c 1.7554,-1.42994 1.8994,-1.76753 1.7038,-3.99472 -0.2341,-2.66783 -2.1844,-5.07597 -4.2075,-5.19529 -0.6382,-0.0361 -1.8805,0.60299 -2.7608,1.42368 -1.2635,1.17767 -1.6318,2.03784 -1.7474,4.08139 -0.1309,2.31443 0.041,2.72028 1.6179,3.82293 2.4159,1.68944 3.1748,1.67 5.394,-0.13799 z m -80.6759,6.42384 c -0.8518,-1.15313 -1.29,-11.55777 -0.6638,-16.42846 0.1826,-1.42009 0.7915,-2.11861 1.6391,-2.72732 3.2549,-2.33765 10.6258,-7.63824 11.0463,-7.61445 1.825,0.10325 12.2163,7.79022 13.0986,9.6898 0.5411,1.16476 1.1292,10.71978 0.9043,14.69321 -0.1135,2.0071 -0.4653,2.9976 -1.3053,3.67558 -1.1046,0.89151 -1.2666,0.85232 -4.1096,-0.99509 -1.6281,-1.05773 -3.2452,-2.30932 -3.5937,-2.78121 -0.3488,-0.47195 -0.499,-4.28186 -0.5289,-6.7874 -0.1031,-3.84103 -1.2026,-4.10026 -3.2037,-5.82527 -0.8984,-0.77445 -1.1122,-0.78484 -2.1902,-0.009 -2.7037,1.94534 -3.2526,2.41434 -3.3192,4.07831 l -0.2842,7.11063 c -0.086,2.15515 -0.904,2.27693 -2.5507,3.223 -2.7693,1.59106 -4.0255,1.93453 -4.939,0.69782 z m 105.44733,1.6541 c -2.84312,-1.86204 -5.54617,-3.88892 -6.00695,-4.50423 -1.00395,-1.34116 -1.33924,-9.36037 -0.49957,-13.87594 0,0 0.26348,-1.13258 0.31791,-1.70968 0.0995,-1.05481 1.59681,-2.00175 4.96524,-4.1543 7.34918,-4.6964 7.17571,-4.44004 12.85829,-0.37011 5.15471,3.69178 5.86335,4.57744 5.71794,7.14753 -0.1115,1.9707 -0.28485,3.03882 -3.23951,4.7711 -3.08649,1.80958 -4.45531,1.57315 -4.32144,-0.79297 0.0877,-1.55118 -0.26285,-2.25909 -1.74847,-3.53125 -3.05424,-2.61527 -6.85223,-1.40297 -6.81874,3.57057 0.0197,2.92201 -0.0779,3.16269 1.58077,4.20616 4.89246,3.07774 9.73144,7.03631 9.65786,7.90064 -0.0948,1.10382 -5.2011,4.90426 -6.44938,4.7991 -0.46453,-0.0391 -3.17082,-1.59461 -6.01395,-3.45662 z m 4.02142,-15.49637 c 1.23877,-0.97331 1.97515,-1.0058 3.49143,0.18966 1.55142,1.22318 1.52548,3.33455 -0.31546,4.6483 -1.97222,1.40744 -5.55764,-2.96665 -3.17597,-4.83796 z" transform="translate(-24.870788,-124.35417) translate(1121.2651,687.16275)" fill="#FFFFFF"/>
</svg>